<mxfile host="app.diagrams.net" modified="2023-10-04T01:53:02.342Z" agent="Mozilla/5.0 (Windows NT 10.0; Win64; x64; rv:109.0) Gecko/20100101 Firefox/118.0" etag="-Gsx5fIOVeUt4AXm8uOr" version="22.0.2" type="device">
  <diagram name="Page-1" id="dSlaFUN98kJ1tQNIs6oI">
    <mxGraphModel dx="644" dy="380" grid="1" gridSize="10" guides="1" tooltips="1" connect="1" arrows="1" fold="1" page="1" pageScale="1" pageWidth="850" pageHeight="1100" math="0" shadow="0">
      <root>
        <mxCell id="0" />
        <mxCell id="1" parent="0" />
        <mxCell id="BgD7G4id4oGh9DRPzrYK-9" style="edgeStyle=orthogonalEdgeStyle;rounded=0;orthogonalLoop=1;jettySize=auto;html=1;" edge="1" parent="1" source="BgD7G4id4oGh9DRPzrYK-7">
          <mxGeometry relative="1" as="geometry">
            <mxPoint x="370" y="150" as="targetPoint" />
          </mxGeometry>
        </mxCell>
        <mxCell id="BgD7G4id4oGh9DRPzrYK-7" value="Mulai" style="ellipse;whiteSpace=wrap;html=1;" vertex="1" parent="1">
          <mxGeometry x="310" y="40" width="120" height="60" as="geometry" />
        </mxCell>
        <mxCell id="BgD7G4id4oGh9DRPzrYK-11" style="edgeStyle=orthogonalEdgeStyle;rounded=0;orthogonalLoop=1;jettySize=auto;html=1;" edge="1" parent="1" source="BgD7G4id4oGh9DRPzrYK-10">
          <mxGeometry relative="1" as="geometry">
            <mxPoint x="365" y="250" as="targetPoint" />
          </mxGeometry>
        </mxCell>
        <mxCell id="BgD7G4id4oGh9DRPzrYK-10" value="&lt;div&gt;Menentukan angka&lt;/div&gt;&lt;div&gt;yang akan di&lt;/div&gt;&lt;div&gt;tebak&lt;br&gt;&lt;/div&gt;" style="shape=parallelogram;perimeter=parallelogramPerimeter;whiteSpace=wrap;html=1;fixedSize=1;" vertex="1" parent="1">
          <mxGeometry x="290" y="140" width="150" height="60" as="geometry" />
        </mxCell>
        <mxCell id="BgD7G4id4oGh9DRPzrYK-13" style="edgeStyle=orthogonalEdgeStyle;rounded=0;orthogonalLoop=1;jettySize=auto;html=1;" edge="1" parent="1" source="BgD7G4id4oGh9DRPzrYK-12">
          <mxGeometry relative="1" as="geometry">
            <mxPoint x="365" y="360" as="targetPoint" />
          </mxGeometry>
        </mxCell>
        <mxCell id="BgD7G4id4oGh9DRPzrYK-12" value="&lt;div&gt;menebak angka yang&lt;/div&gt;&lt;div&gt;di tentukan&lt;br&gt;&lt;/div&gt;" style="rounded=0;whiteSpace=wrap;html=1;" vertex="1" parent="1">
          <mxGeometry x="290" y="240" width="150" height="60" as="geometry" />
        </mxCell>
        <mxCell id="BgD7G4id4oGh9DRPzrYK-22" style="edgeStyle=orthogonalEdgeStyle;rounded=0;orthogonalLoop=1;jettySize=auto;html=1;exitX=0.5;exitY=1;exitDx=0;exitDy=0;" edge="1" parent="1" source="BgD7G4id4oGh9DRPzrYK-15">
          <mxGeometry relative="1" as="geometry">
            <mxPoint x="365" y="480" as="targetPoint" />
          </mxGeometry>
        </mxCell>
        <mxCell id="BgD7G4id4oGh9DRPzrYK-48" value="No" style="edgeLabel;html=1;align=center;verticalAlign=middle;resizable=0;points=[];" vertex="1" connectable="0" parent="BgD7G4id4oGh9DRPzrYK-22">
          <mxGeometry x="-0.5644" y="-2" relative="1" as="geometry">
            <mxPoint as="offset" />
          </mxGeometry>
        </mxCell>
        <mxCell id="BgD7G4id4oGh9DRPzrYK-26" style="edgeStyle=orthogonalEdgeStyle;rounded=0;orthogonalLoop=1;jettySize=auto;html=1;" edge="1" parent="1" source="BgD7G4id4oGh9DRPzrYK-15">
          <mxGeometry relative="1" as="geometry">
            <mxPoint x="490" y="390" as="targetPoint" />
          </mxGeometry>
        </mxCell>
        <mxCell id="BgD7G4id4oGh9DRPzrYK-47" value="Yes" style="edgeLabel;html=1;align=center;verticalAlign=middle;resizable=0;points=[];" vertex="1" connectable="0" parent="BgD7G4id4oGh9DRPzrYK-26">
          <mxGeometry x="-0.2053" y="-1" relative="1" as="geometry">
            <mxPoint as="offset" />
          </mxGeometry>
        </mxCell>
        <mxCell id="BgD7G4id4oGh9DRPzrYK-15" value="&lt;div&gt;&amp;nbsp;Tebakan=&lt;/div&gt;&lt;div&gt;angka&lt;br&gt;&lt;/div&gt;" style="rhombus;whiteSpace=wrap;html=1;" vertex="1" parent="1">
          <mxGeometry x="315" y="350" width="100" height="80" as="geometry" />
        </mxCell>
        <mxCell id="BgD7G4id4oGh9DRPzrYK-24" style="edgeStyle=orthogonalEdgeStyle;rounded=0;orthogonalLoop=1;jettySize=auto;html=1;exitX=0.5;exitY=1;exitDx=0;exitDy=0;" edge="1" parent="1" source="BgD7G4id4oGh9DRPzrYK-23">
          <mxGeometry relative="1" as="geometry">
            <mxPoint x="365" y="580" as="targetPoint" />
          </mxGeometry>
        </mxCell>
        <mxCell id="BgD7G4id4oGh9DRPzrYK-51" value="No" style="edgeLabel;html=1;align=center;verticalAlign=middle;resizable=0;points=[];" vertex="1" connectable="0" parent="BgD7G4id4oGh9DRPzrYK-24">
          <mxGeometry x="-0.5556" y="-2" relative="1" as="geometry">
            <mxPoint as="offset" />
          </mxGeometry>
        </mxCell>
        <mxCell id="BgD7G4id4oGh9DRPzrYK-49" style="edgeStyle=orthogonalEdgeStyle;rounded=0;orthogonalLoop=1;jettySize=auto;html=1;exitX=0;exitY=0.5;exitDx=0;exitDy=0;entryX=1;entryY=0.5;entryDx=0;entryDy=0;" edge="1" parent="1" source="BgD7G4id4oGh9DRPzrYK-23" target="BgD7G4id4oGh9DRPzrYK-30">
          <mxGeometry relative="1" as="geometry" />
        </mxCell>
        <mxCell id="BgD7G4id4oGh9DRPzrYK-50" value="Yes" style="edgeLabel;html=1;align=center;verticalAlign=middle;resizable=0;points=[];" vertex="1" connectable="0" parent="BgD7G4id4oGh9DRPzrYK-49">
          <mxGeometry x="-0.3231" y="-1" relative="1" as="geometry">
            <mxPoint as="offset" />
          </mxGeometry>
        </mxCell>
        <mxCell id="BgD7G4id4oGh9DRPzrYK-23" value="&lt;div&gt;Tebakan&amp;gt; &lt;br&gt;&lt;/div&gt;&lt;div&gt;angka&lt;br&gt;&lt;/div&gt;" style="rhombus;whiteSpace=wrap;html=1;" vertex="1" parent="1">
          <mxGeometry x="320" y="460" width="90" height="80" as="geometry" />
        </mxCell>
        <mxCell id="BgD7G4id4oGh9DRPzrYK-52" style="edgeStyle=orthogonalEdgeStyle;rounded=0;orthogonalLoop=1;jettySize=auto;html=1;exitX=0;exitY=0.5;exitDx=0;exitDy=0;entryX=1;entryY=0.5;entryDx=0;entryDy=0;" edge="1" parent="1" source="BgD7G4id4oGh9DRPzrYK-25" target="BgD7G4id4oGh9DRPzrYK-32">
          <mxGeometry relative="1" as="geometry" />
        </mxCell>
        <mxCell id="BgD7G4id4oGh9DRPzrYK-53" value="Yes" style="edgeLabel;html=1;align=center;verticalAlign=middle;resizable=0;points=[];" vertex="1" connectable="0" parent="BgD7G4id4oGh9DRPzrYK-52">
          <mxGeometry x="-0.2364" relative="1" as="geometry">
            <mxPoint as="offset" />
          </mxGeometry>
        </mxCell>
        <mxCell id="BgD7G4id4oGh9DRPzrYK-54" style="edgeStyle=orthogonalEdgeStyle;rounded=0;orthogonalLoop=1;jettySize=auto;html=1;exitX=1;exitY=0.5;exitDx=0;exitDy=0;" edge="1" parent="1" source="BgD7G4id4oGh9DRPzrYK-25" target="BgD7G4id4oGh9DRPzrYK-42">
          <mxGeometry relative="1" as="geometry" />
        </mxCell>
        <mxCell id="BgD7G4id4oGh9DRPzrYK-55" value="No" style="edgeLabel;html=1;align=center;verticalAlign=middle;resizable=0;points=[];" vertex="1" connectable="0" parent="BgD7G4id4oGh9DRPzrYK-54">
          <mxGeometry x="-0.5193" relative="1" as="geometry">
            <mxPoint as="offset" />
          </mxGeometry>
        </mxCell>
        <mxCell id="BgD7G4id4oGh9DRPzrYK-25" value="&lt;div&gt;Tebakan &lt;br&gt;&lt;/div&gt;&lt;div&gt;angka&lt;br&gt;&lt;/div&gt;" style="rhombus;whiteSpace=wrap;html=1;" vertex="1" parent="1">
          <mxGeometry x="322.5" y="580" width="85" height="80" as="geometry" />
        </mxCell>
        <mxCell id="BgD7G4id4oGh9DRPzrYK-41" style="edgeStyle=orthogonalEdgeStyle;rounded=0;orthogonalLoop=1;jettySize=auto;html=1;exitX=1;exitY=0.5;exitDx=0;exitDy=0;" edge="1" parent="1" source="BgD7G4id4oGh9DRPzrYK-29">
          <mxGeometry relative="1" as="geometry">
            <mxPoint x="710" y="766" as="targetPoint" />
          </mxGeometry>
        </mxCell>
        <mxCell id="BgD7G4id4oGh9DRPzrYK-29" value="&lt;div&gt;Tebakan angka&lt;/div&gt;&lt;div&gt;benar&lt;br&gt;&lt;/div&gt;" style="shape=parallelogram;perimeter=parallelogramPerimeter;whiteSpace=wrap;html=1;fixedSize=1;" vertex="1" parent="1">
          <mxGeometry x="470" y="360" width="110" height="60" as="geometry" />
        </mxCell>
        <mxCell id="BgD7G4id4oGh9DRPzrYK-56" style="edgeStyle=orthogonalEdgeStyle;rounded=0;orthogonalLoop=1;jettySize=auto;html=1;exitX=0.5;exitY=0;exitDx=0;exitDy=0;entryX=0;entryY=0.5;entryDx=0;entryDy=0;" edge="1" parent="1" source="BgD7G4id4oGh9DRPzrYK-30" target="BgD7G4id4oGh9DRPzrYK-12">
          <mxGeometry relative="1" as="geometry" />
        </mxCell>
        <mxCell id="BgD7G4id4oGh9DRPzrYK-30" value="&lt;div&gt;Tebakan angka&lt;/div&gt;&lt;div&gt;lebih kecil&lt;br&gt;&lt;/div&gt;" style="shape=parallelogram;perimeter=parallelogramPerimeter;whiteSpace=wrap;html=1;fixedSize=1;" vertex="1" parent="1">
          <mxGeometry x="150" y="470" width="115" height="60" as="geometry" />
        </mxCell>
        <mxCell id="BgD7G4id4oGh9DRPzrYK-58" style="edgeStyle=orthogonalEdgeStyle;rounded=0;orthogonalLoop=1;jettySize=auto;html=1;exitX=0;exitY=0.5;exitDx=0;exitDy=0;entryX=0;entryY=0.5;entryDx=0;entryDy=0;" edge="1" parent="1" source="BgD7G4id4oGh9DRPzrYK-32" target="BgD7G4id4oGh9DRPzrYK-12">
          <mxGeometry relative="1" as="geometry">
            <Array as="points">
              <mxPoint x="130" y="620" />
              <mxPoint x="130" y="270" />
            </Array>
          </mxGeometry>
        </mxCell>
        <mxCell id="BgD7G4id4oGh9DRPzrYK-32" value="&lt;div&gt;Tebakan angka &lt;br&gt;&lt;/div&gt;&lt;div&gt;lebi besar&lt;br&gt;&lt;/div&gt;" style="shape=parallelogram;perimeter=parallelogramPerimeter;whiteSpace=wrap;html=1;fixedSize=1;" vertex="1" parent="1">
          <mxGeometry x="140" y="590" width="110" height="60" as="geometry" />
        </mxCell>
        <mxCell id="BgD7G4id4oGh9DRPzrYK-42" value="Jawaban benar" style="shape=parallelogram;perimeter=parallelogramPerimeter;whiteSpace=wrap;html=1;fixedSize=1;" vertex="1" parent="1">
          <mxGeometry x="650" y="640" width="120" height="50" as="geometry" />
        </mxCell>
        <mxCell id="BgD7G4id4oGh9DRPzrYK-46" value="Selesai" style="rounded=1;whiteSpace=wrap;html=1;" vertex="1" parent="1">
          <mxGeometry x="650" y="750" width="120" height="40" as="geometry" />
        </mxCell>
      </root>
    </mxGraphModel>
  </diagram>
</mxfile>
